<?xml version="1.0" encoding="UTF-8" standalone="no"?>
<!-- Created with Inkscape (http://www.inkscape.org/) -->

<svg
   xmlns:dc="http://purl.org/dc/elements/1.1/"
   xmlns:cc="http://creativecommons.org/ns#"
   xmlns:rdf="http://www.w3.org/1999/02/22-rdf-syntax-ns#"
   xmlns:svg="http://www.w3.org/2000/svg"
   xmlns="http://www.w3.org/2000/svg"
   xmlns:sodipodi="http://sodipodi.sourceforge.net/DTD/sodipodi-0.dtd"
   xmlns:inkscape="http://www.inkscape.org/namespaces/inkscape"
   width="210mm"
   height="297mm"
   viewBox="0 0 210 297"
   version="1.1"
   id="svg8"
   inkscape:version="0.92.3 (2405546, 2018-03-11)"
   sodipodi:docname="pencil.svg">
  <defs
     id="defs2" />
  <sodipodi:namedview
     id="base"
     pagecolor="#ffffff"
     bordercolor="#666666"
     borderopacity="1.0"
     inkscape:pageopacity="0.0"
     inkscape:pageshadow="2"
     inkscape:zoom="3.959798"
     inkscape:cx="1214.6663"
     inkscape:cy="-1293.9012"
     inkscape:document-units="mm"
     inkscape:current-layer="layer1"
     showgrid="false"
     inkscape:window-width="1920"
     inkscape:window-height="1031"
     inkscape:window-x="0"
     inkscape:window-y="0"
     inkscape:window-maximized="1"
     inkscape:snap-global="false" />
  <metadata
     id="metadata5">
    <rdf:RDF>
      <cc:Work
         rdf:about="">
        <dc:format>image/svg+xml</dc:format>
        <dc:type
           rdf:resource="http://purl.org/dc/dcmitype/StillImage" />
        <dc:title />
      </cc:Work>
    </rdf:RDF>
  </metadata>
  <g
     inkscape:label="Layer 1"
     inkscape:groupmode="layer"
     id="layer1">
    <path
       sodipodi:type="star"
       style="fill:none;stroke:none;stroke-width:0.061;stroke-miterlimit:4;stroke-dasharray:none;stroke-opacity:1"
       id="path815"
       sodipodi:sides="5"
       sodipodi:cx="27.970238"
       sodipodi:cy="95.916664"
       sodipodi:r1="94.684349"
       sodipodi:r2="40.080425"
       sodipodi:arg1="0.67224718"
       sodipodi:arg2="-0.10670717"
       inkscape:flatsided="false"
       inkscape:rounded="0"
       inkscape:randomized="0"
       d="M 102.05357,154.88095 67.822693,91.647907 -5.2151188,184.59506 44.345153,132.49948 -66.622769,91.758646 -1.7619636,122.79485 2.6939013,4.6684709 -6.7801884,75.945476 106.94161,43.680197 36.225495,56.695608 Z"
       inkscape:transform-center-x="7.8108183"
       inkscape:transform-center-y="-1.2848996" />
    <g
       id="g1020"
       transform="matrix(0.39647923,-0.70168624,0.92624781,0.30035593,-898.30206,1072.0297)">
      <path
         sodipodi:nodetypes="ccccccccc"
         inkscape:connector-curvature="0"
         id="path921"
         d="m 1008.0041,882.93918 -1.9072,0.73376 0.9842,0.89085 0.5379,1.53287 -0.1371,1.21842 2.0626,-0.92919 0.1304,-1.60267 -0.6194,-1.33234 z"
         style="fill:#d82f04;fill-opacity:1;stroke:none;stroke-width:0.04967564px;stroke-linecap:butt;stroke-linejoin:miter;stroke-opacity:1" />
      <path
         sodipodi:nodetypes="csccc"
         inkscape:connector-curvature="0"
         id="path915"
         d="m 978.1495,897.10257 c 0,0 0.24813,-0.0983 0.55822,0.59443 0.3468,0.77467 0.002,0.90721 0.002,0.90721 l -2.74427,0.50653 z"
         style="fill:#d82f04;fill-opacity:1;stroke:none;stroke-width:0.04967564px;stroke-linecap:butt;stroke-linejoin:miter;stroke-opacity:1" />
      <path
         inkscape:export-ydpi="96"
         inkscape:export-xdpi="96"
         sodipodi:nodetypes="ccccccccccccccccccccccc"
         inkscape:connector-curvature="0"
         id="path913"
         d="m 1005.0781,884.16532 -23.99449,10.04085 -5.47701,5.09766 6.78106,-1.2358 0.33268,-1.93214 -1.13455,-0.82109 24.16741,-10.02291 0.4179,1.15387 -23.09842,9.69522 -0.29019,1.7956 23.73011,-10.06387 3.1297,-1.39027 0.1304,-1.69922 -0.652,-1.39027 -1.1003,-0.59859 -2.1517,0.8303 1.1079,1.00837 0.5331,1.47728 -0.165,1.36959 -1.0047,0.44977 0.2453,-1.47454 -0.5196,-1.45522 z"
         style="fill:none;stroke:#310900;stroke-width:0.25627938;stroke-linecap:round;stroke-linejoin:round;stroke-miterlimit:4;stroke-dasharray:none;stroke-opacity:1" />
    </g>
  </g>
</svg>
